<?xml version="1.0" encoding="utf-8"?>
<!-- Generator: Adobe Illustrator 24.0.1, SVG Export Plug-In . SVG Version: 6.00 Build 0)  -->
<svg version="1.1" id="Capa_1" xmlns="http://www.w3.org/2000/svg" xmlns:xlink="http://www.w3.org/1999/xlink" x="0px" y="0px"
	 viewBox="0 0 612 612" style="enable-background:new 0 0 612 612;" xml:space="preserve">
<style type="text/css">
	.st0{fill:#FFFFFF;stroke:#000000;stroke-miterlimit:10;}
	.st1{fill:#52AA5E;}
</style>
<rect x="124" y="112" class="st0" width="358" height="369"/>
<g>
	<g id="_x31__32_">
		<g>
			<path class="st1" d="M306,0C137,0,0,137,0,306s137,306,306,306s306-137,306-306S475,0,306,0z M428.3,199.6
				c0,0-135,235.1-137.3,237.3c-7.7,7.2-19.8,6.8-27-0.9l-87.4-80.6c-7.2-7.7-6.8-19.8,0.9-27c7.7-7.2,19.8-6.8,27,0.9l68.4,63.1
				l122.3-211.8c5.3-9.1,17-12.3,26.1-7C430.4,178.7,433.5,190.4,428.3,199.6z"/>
		</g>
	</g>
</g>
</svg>
