<?xml version="1.0" encoding="utf-8"?>
<!-- Generator: Adobe Illustrator 24.2.3, SVG Export Plug-In . SVG Version: 6.00 Build 0)  -->
<svg version="1.1" id="Layer_1" xmlns="http://www.w3.org/2000/svg" xmlns:xlink="http://www.w3.org/1999/xlink" x="0px" y="0px"
	 viewBox="0 0 24 24" style="enable-background:new 0 0 24 24;" xml:space="preserve">
<style type="text/css">
	.st0{fill:#1098F7;}
</style>
<path class="st0" d="M15,12c0,1.7-1.3,3-3,3s-3-1.3-3-3s1.3-3,3-3S15,10.3,15,12z M24,11.6c0,0-4.3,8.4-12,8.4c-7.2,0-12-8.4-12-8.4
	S4.4,4,12,4C19.7,4,24,11.6,24,11.6z M17,12c0-2.8-2.2-5-5-5s-5,2.2-5,5s2.2,5,5,5S17,14.8,17,12z"/>
</svg>
