<?xml version="1.0" encoding="utf-8"?>
<!-- Generator: Adobe Illustrator 24.0.3, SVG Export Plug-In . SVG Version: 6.00 Build 0)  -->
<svg version="1.1" id="Layer_1" xmlns="http://www.w3.org/2000/svg" xmlns:xlink="http://www.w3.org/1999/xlink" x="0px" y="0px"
	 viewBox="0 0 511 511" style="enable-background:new 0 0 511 511;" xml:space="preserve">
<style type="text/css">
	.st0{fill:#FFFFFF;}
</style>
<path class="st0" d="M168.4,94.3V-1h-1.1c-4,0-7.8,1.6-10.6,4.4L60.3,99.8c-2.8,2.8-4.4,6.6-4.4,10.6v1.1h95.3
	C160.7,111.5,168.4,103.8,168.4,94.3z"/>
<path class="st0" d="M391.2,399.7V46.1c0-25.9-21-47.1-47.1-47.1H198.4v95.3c0,26-21.2,47.1-47.1,47.1H55.9v258.2
	c0,26,21.1,47.1,47.1,47.1h241C370,446.8,391.2,425.8,391.2,399.7z M231.6,350.4h-80.3c-8.3,0-15-6.7-15-15c0-8.3,6.7-15,15-15h80.3
	c8.3,0,15,6.7,15,15C246.6,343.7,239.9,350.4,231.6,350.4z M295.9,286.1H151.2c-8.3,0-15-6.7-15-15c0-8.3,6.7-15,15-15h144.6
	c8.3,0,15,6.7,15,15C310.9,279.4,304.1,286.1,295.9,286.1z M295.9,221.8H151.2c-8.3,0-15-6.7-15-15c0-8.3,6.7-15,15-15h144.6
	c8.3,0,15,6.7,15,15C310.9,215.1,304.1,221.8,295.9,221.8z"/>
<path class="st0" d="M421.2,64v335.7c0,42.5-34.6,77.1-77.1,77.1H122.3c6,19.2,23.9,33.2,45,33.2h241c25.9,0,47.1-21,47.1-47.1
	V109.3C455.5,87.9,441.1,69.6,421.2,64z"/>
</svg>
