<?xml version="1.0" encoding="utf-8"?>
<!-- Generator: Adobe Illustrator 24.0.1, SVG Export Plug-In . SVG Version: 6.00 Build 0)  -->
<svg version="1.1" id="Layer_1" xmlns="http://www.w3.org/2000/svg" xmlns:xlink="http://www.w3.org/1999/xlink" x="0px" y="0px"
	 viewBox="0 0 640 512" style="enable-background:new 0 0 640 512;" xml:space="preserve">
<path d="M320,256c61.9,0,112-50.1,112-112S381.9,32,320,32S208,82.1,208,144S258.1,256,320,256z M396.8,288h-8.3
	c-20.8,10-43.9,16-68.5,16s-47.6-6-68.5-16h-8.3C179.6,288,128,339.6,128,403.2V432c0,26.5,21.5,48,48,48h288c26.5,0,48-21.5,48-48
	v-28.8C512,339.6,460.4,288,396.8,288z"/>
</svg>
