<?xml version="1.0" encoding="utf-8"?>
<!-- Generator: Adobe Illustrator 24.0.1, SVG Export Plug-In . SVG Version: 6.00 Build 0)  -->
<svg version="1.1" id="Capa_1" xmlns="http://www.w3.org/2000/svg" xmlns:xlink="http://www.w3.org/1999/xlink" x="0px" y="0px"
	 viewBox="0 0 612 612" style="enable-background:new 0 0 612 612;" xml:space="preserve">
<style type="text/css">
	.st0{fill:#FFFFFF;stroke:#000000;stroke-miterlimit:10;}
	.st1{fill:#E13700;}
</style>
<rect x="140" y="152" class="st0" width="312.5" height="312.5"/>
<g>
	<g id="_x31_0_23_">
		<g>
			<path class="st1" d="M306,0C137,0,0,137,0,306s137,306,306,306c169,0,306-137,306-306S475,0,306,0z M414.2,387.1
				c7.5,7.5,7.5,19.6,0,27c-7.5,7.5-19.6,7.5-27,0l-81-81l-81.6,81.6c-7.5,7.5-19.7,7.5-27.3,0c-7.5-7.5-7.5-19.7,0-27.3l81.6-81.6
				l-81-81c-7.5-7.5-7.5-19.6,0-27c7.5-7.5,19.6-7.5,27,0l81,81l82.2-82.2c7.5-7.5,19.7-7.5,27.3,0c7.5,7.5,7.5,19.7,0,27.3
				l-82.2,82.2L414.2,387.1z"/>
		</g>
	</g>
</g>
</svg>
