<?xml version="1.0" encoding="utf-8"?>
<!-- Generator: Adobe Illustrator 23.0.4, SVG Export Plug-In . SVG Version: 6.00 Build 0)  -->
<svg version="1.1" id="Layer_1" xmlns:serif="http://www.serif.com/"
	 xmlns="http://www.w3.org/2000/svg" xmlns:xlink="http://www.w3.org/1999/xlink" x="0px" y="0px" viewBox="0 0 128.7 93.3"
	 style="enable-background:new 0 0 128.7 93.3;" xml:space="preserve">
<style type="text/css">
	.st0{fill-rule:evenodd;clip-rule:evenodd;}
	.st1{fill-rule:evenodd;clip-rule:evenodd;fill:#EB001D;}
</style>
<path id="M" class="st0" d="M0,93.3L15.7,0H51l13.9,49.1L77.8,0h31.8c-4.5,11.1-7.1,23.8-8.5,35.9c0.7,9.3,2.8,8.7,7.1,16.2
	c2.7,4.4-2.5,24.2-12.1,41.2h-2.3l-4.2-46.7L74.4,93.3H54.2L38.9,43.5l-4.1,49.8H0L0,93.3z"/>
<path id="S" class="st1" d="M112.3,0l16.4,93.3h-27.5c8.1-14.5,15.9-28.6,13.8-38.4c-0.8-4-7.9-7.9-7.2-18.2
	C108.7,25.1,110.3,9.4,112.3,0L112.3,0z"/>
</svg>
